<svg xmlns="http://www.w3.org/2000/svg" version="1.1" xmlns:xlink="http://www.w3.org/1999/xlink" xmlns:svgjs="http://svgjs.dev/svgjs" viewBox="0 0 1422 800"><defs><linearGradient x1="50%" y1="0%" x2="50%" y2="100%" id="ssscribble-grad"><stop stop-color="hsl(105, 65%, 17%)" stop-opacity="1" offset="0%"></stop><stop stop-color="hsl(105, 100%, 17%)" stop-opacity="1" offset="100%"></stop></linearGradient></defs><g fill="none" stroke-width="1.5" stroke="url(#ssscribble-grad)" stroke-linecap="round"><path d="M1155.32 510.72C1293.08 532.26 1444.35 557.48 1551.62 586.02 1577.82 614.41 1512.99 645.84 1382.9 679.69 1231.82 712.85 1111.22 747.65 1057.34 783.13 1083.66 816.71 1176.14 849.51 1300.62 880.11 1420.79 906.87 1496.75 929.4 1508.62 946.1 1454.65 956.84 1349.18 959.92 1219.77 954.21 1092.38 941.81 995.63 920.49 944.4 890.67 943.27 856.91 985.97 817.73 1057 775.71 1144.2 737.06 1225.2 701.81 1286.16 673.89 1322.47 658.72 1326.16 657.08 1300.18 671.63 1248.3 703.69 1178.32 752.52 1099.31 816.49 1013.1 891.15 930.6 972.47 856.35 1054.23 787.34 1128.86 730.07 1190.59 683.8 1232.97 644.31 1252 613.24 1244.97 588.02 1211.67 566.5 1157.06 547.42 1085.01 528.72 1003.38 510.99 923.71 491.74 853.35 470.2 801.34 448.66 775.93 425.34 778.84 401.12 808.54 377.86 862.3 355.6 931.58 336.5 1007.66 321.11 1084.13 312.27 1150.26 312.68 1199.28 319.87 1228.26 338.89 1232.84 370.57 1213.5 407.49 1172.7 453.59 1113.99 504.44 1043.07 548.08 964.51 583.72 885.12 602.41 810.33 595.19 743.18 559.45 688.15 492.32 646.94 400.54 620.15 289.96 607.57 174.53 607.37 75.27 619.24 5.68 639.19 -18.61 664.14 7.18 694.66 79.95 725.31 184.91 753.75 334.19 793.62 333.41 840.51 150.7 845.86 -42.81 840.53 -37.66 803.18 160.25 775.57 282.03 755.32 340.53 733.94 310.06 712.12 198.53 690 45.08 668.02 -92.67 646.48 -160.71 624.94 -132.41 604.36 -21.47 584.52 130.64 564.38 268.05 544.43 344.09 524.06 335.47 502.57 249.8 479.62 120.97 454.36 -9.75 426.79 -96.17 395.64 -112.91 360.09 -56.51 321.26 56.51 277.17 193.51 227.58 322.25 174.99 410.55 117.49 442.99 56.01 417.15 -5.62 346.07 -68.33 252.06 -129.67 153.48 -185.44 76.7 -234.98 35.6 -275.08 34.28 -303.11 73.83 -317.42 144.72 -316.07 239.03 -300.3 341.13 -269.26 438.92 -224.53 528.42 -172.17 599.08 -113.65 649.31 -54.31 687.61 17.98 675.04 57.84 649.66 7.41 628.65 -53.75 612.15 -130.16 602.17 -214.94 591.94 -299.33 589.43 -374.95 595 -432.98 600.77 -466.95 614.36 -472.06 635.9 -446.66 657.44 -394.66 686.41 -322.12 722.6 -238.19 758.99 -152.3 802.83 -73.9 853.68 -10.97 904.28 30.63 960.69 47.96 1020.78 41.09 1076.91 10.88 1131.82 -36.82 1180.74 -95.66 1217.49 -161.63 1240.34 -225.41 1244.18 -280.85 1229.32 -325.61 1193 -353.57 1136.69 -363.21 1072.1 -355.34 1002.05 -329.72 938.56 -289.12 898.49 -235.76 888.52 -173.63 918.07 -106.75 987.4 -36.49 1091.07 32.25 1215.08 96.82 1334.53 157.47 1429.59 210.85 1477.85 256.45 1467.84 295.35 1400.42 326.61 1290.88 351.23 1125.36 376.83 1119.76 403.79 1312.87 412.02 1453.85 415.62 1549.8 420.71 1566.73 428.17 1499.01 434.94 1367.94 444.86 1220.07 458.42 1113.4 471.83 1087.28 489.18 1155.32 510.72Q1155.32 510.72 1155.32 510.72" opacity="0.66"></path><path d="M1116.32 621.4C1244.36 641.59 1387.43 663.43 1497.38 686.6 1540.82 709.54 1503.1 733.34 1398.65 757.36 1259.21 780.44 1127.25 802.8 1039.22 823.52 1016.48 842.13 1061.22 857.78 1155.48 869.38 1274.24 877.54 1381.41 880.35 1450 876.95 1466.24 869.37 1425.22 855.08 1338.63 834.05 1222.69 809.95 1102.13 780.45 997.97 746.9 923.04 714.28 887.93 681.32 891.47 650.69 929.88 627.46 990.61 611.59 1060.29 605.94 1132.75 613.55 1192.7 634.62 1233.76 670.09 1256.26 719.02 1255.72 780.15 1235.33 850.78 1197.83 925.92 1147.89 1001.98 1091.22 1073.41 1027.35 1134.19 963.95 1180.04 904.33 1206.36 844.17 1211.23 790.5 1193.13 744.01 1152.95 698.64 1095.93 660.14 1025.53 628.18 948.58 596.71 874.97 570.91 810.42 550.71 762.34 530.52 737.66 516.41 737.8 508.55 761.68 501.19 807.55 500.93 868.6 508.22 937.88 516.62 1010.45 532.88 1077.03 556.41 1131.44 579.39 1170.87 606.92 1190.21 635.8 1188.58 657.48 1167.2 673.29 1127.38 677.64 1072.94 664.87 1007.23 633.23 935.43 579.6 862.37 507.42 790.74 417.41 725.42 316.06 669.07 217.49 622.58 129.03 587.81 64.16 564.51 34.15 552.52 44.06 550.3 95.14 555.84 175.46 569.35 273.54 587.06 368.45 606.75 434.01 629.9 455.47 651.95 421.22 671.47 334.61 691.14 210.99 706.68 77.43 717.6 -31.63 727.24 -89.52 732.03 -78.17 732.14 -1.53 730.92 120.78 725.53 252.42 716.43 349.07 706.53 380.86 693.58 333.42 677.96 219.48 662.12 74.36 644.03 -53.67 623.84 -120.18 603.64 -102.06 581.82 -8.08 558.34 130.49 534.63 268.44 508.83 363.75 480.64 390.06 451.67 342.98 419.65 241.49 384.23 114.72 347.49 3.25 306.84 -62.45 262.2 -67.44 216.29 -9.65 166.62 94.28 113.8 222.08 61.13 343.77 6.88 435.86 -47.37 484.73 -98.19 484.5 -145.96 442.37 -188.37 367.74 -222.8 280.96 -248.31 199.57 -262.79 132.81 -265.96 95.07 -256.39 89.3 -233.75 113.91 -201.26 165.28 -158.42 234.84 -107.81 318.54 -55.78 405.09 -3.55 487.42 44.14 565.9 80.58 632.47 103.95 686.27 110.53 730.49 97.37 763.09 64.89 786.78 14.06 803.46 -51.72 815.35 -127.94 825.33 -208.31 832.26 -285.38 840.46 -352.37 851.7 -402.24 862.26 -430.13 877.29 -432.32 897.48 -407.66 917.67 -359.58 942.55 -293 971.33 -215.39 999.41 -134.45 1029.97 -58.1 1061.12 6.71 1101.98 68.57 1149.28 57.71 1141.68 -4.62 1122.88 -61.24 1090.43 -120.84 1045.11 -177.98 995.94 -230.6 941.57 -272.16 889 -300.07 850.56 -314.52 829.25 -313.11 833.53 -296.88 868.19 -267.38 933.66 -226.3 1026.89 -176.61 1134.74 -119.52 1246.73 -58.83 1345.21 2.67 1411.17 65.12 1433.89 124.67 1406.04 179.89 1334.98 232.05 1232.86 278.52 1123.08 319.26 1037.14 355.82 995.8 387.14 1015.6 413.97 1096.11 437.36 1220.73 457.57 1358.89 475.6 1471.78 491.52 1528.5 506.56 1509.99 521.57 1422.46 535.63 1290.46 550.58 1155.87 566.98 1065.88 583.14 1049.81 601.21 1116.32 621.4Q1116.32 621.4 1116.32 621.4" opacity="0.07"></path><path d="M1076.4 647.14C1194.43 665.99 1328.68 684.02 1439.44 701.05 1497.51 717.87 1485.59 733.25 1409.33 746.75 1289.43 759.43 1158.26 769.49 1048.56 776.32 984.38 781.58 978.81 782.82 1027.97 779.52 1119.25 774.15 1226.69 763.85 1324.75 748.53 1395.6 731.59 1422.05 710.25 1401.26 685.25 1337.79 660.74 1243.96 634.69 1136.62 608.77 1028.61 587.31 937.21 569.37 871.7 557.21 835.61 554.09 830.29 560 850.41 576.58 892.59 604.68 945.99 644.18 1001.91 694.68 1059.01 753.8 1106.52 820.13 1141.1 890.55 1165.35 960.32 1174.63 1026.45 1170.8 1084.38 1156.8 1129.8 1133.52 1159.64 1104.35 1170.94 1069.54 1163.37 1033.01 1136.27 997.32 1091.16 959.62 1033.28 925.12 965.53 895.2 893.75 864.9 826.25 840.02 767.4 821.17 723.16 802.33 699.33 789.96 697.03 783.55 715.56 776.76 753.88 775.09 806.66 777.25 868.48 777.39 935.7 779.01 1000.47 779.63 1057.39 774.6 1104.02 764.41 1134.99 745.75 1148.59 716.91 1145.24 675.79 1124.46 620.59 1088.48 555.06 1039.57 477.52 981.13 391.36 917.01 306.4 849.37 224.95 782.65 155.8 719.83 108.71 661.77 88.15 611.51 99.54 569.96 140.35 536.94 208.22 513.01 293.98 497.31 415.49 488.95 474.57 505.62 364.55 522.51 249.68 536.52 126.88 549.27 21.79 559.79 -41.18 570.96 -47.88 578.92 5.65 583.24 104.72 587.4 226.89 587.7 339.52 584.05 408.5 580.15 414.88 572.44 353.08 560.94 238.59 549.36 102.43 534.16 -15.59 515.32 -79.54 496.47 -69.85 474.42 8.21 449.3 131.68 424.08 265.04 395.63 372.24 363.99 427.06 332.1 417.53 296.89 350.69 258.53 243.96 220.01 128.41 178.58 32.99 134.75 -22.84 91.57 -24.6 46.97 25.67 2.02 117.71 -40.4 231.91 -81.26 346.55 -118.95 445.32 -151.31 511.62 -178 539.58 -197.29 528.76 -208.55 486.09 -210.51 423.17 -202.2 347.43 -185.34 275.07 -158.61 215.89 -122.81 172.4 -82.24 152.54 -36.51 155.74 11.5 179.61 55.99 221.26 96.17 274.86 128.27 339.15 147.45 406.52 152.87 472.48 142.42 539.51 115.01 600.49 71.77 654.18 14.51 705.28 -53.03 748.89 -126.8 785.7 -201.29 820.39 -270.38 849.85 -328.71 875.05 -370.77 899.59 -393.03 921.12 -392.65 939.97 -368.84 958.81 -324.61 974.53 -263.85 986.7 -192.62 998.2 -117.11 1004.92 -43.81 1005.77 21.33 1004.51 73.72 995.82 109.83 978.9 128.04 959.41 127.38 931.9 109.81 897.54 78.22 864.24 34.1 828.72 -16.66 795.37 -69.62 772.71 -123.23 761.11 -171.3 766.29 -210.8 792.13 -241.67 840.05 -260.2 910.51 -266.04 996.65 -260.37 1094.89 -242.76 1195.33 -214.94 1282.95 -178.07 1349.15 -134.26 1382.22 -85.83 1376.52 -32.95 1331.21 21.15 1252.06 74.7 1157.04 128.75 1061.1 180.13 985.87 228.02 952.41 274.28 969.53 316.44 1039.18 354.47 1148.41 390.43 1276.23 422.67 1393.6 451.6 1471.08 478.96 1489.6 503.81 1442.06 526.67 1342.13 548.72 1214.32 569.51 1094.58 589.4 1020.23 609.08 1012.45 628.29 1076.4 647.14Q1076.4 647.14 1076.4 647.14" opacity="0.64"></path><path d="M1038.37 578.57C1147.24 596.07 1272.07 610.84 1380.77 622.86 1448.78 634.75 1458.36 643.63 1409.3 649.35 1192.79 659.51 984.9 655.05 938.6 635.43 1070.6 614.19 1260.4 580.92 1368.84 542.09 1335.52 515.39 1179.79 499.97 991.41 508.6 837.24 551.04 771.56 628.72 783.68 738.97 854.92 864.39 937.31 988.83 999.17 1084.9 1048.27 1129.91 1062.04 1110.63 1049.68 1027.23 1040.04 969.93 1026.88 905.73 1011.48 839.49 995.43 778.12 978.4 724.83 960.9 684.35 943.4 661.49 925.85 657.1 907.8 670.75 889.12 701.95 868.69 746.58 845.32 800.51 791.68 924.19 714.23 1031.46 604.48 1094.32 481.96 1103.9 341.93 1055.17 216.75 964.13 150.68 846.31 166.11 724.97 274.4 617.8 416.91 529.66 531.14 469.38 528.01 433.54 383.13 419.13 161.94 417.54 4.29 419.51 24.93 429.08 212.9 432.37 415.9 424.75 458.21 421.3 443.48 414.59 372.01 404.38 259.84 394.21 133.24 380.45 24.37 362.95 -37.95 345.45 -37.07 324.63 24.63 300.72 131.13 276.84 255.66 249.96 368.62 220.41 470.51 162.02 365.75 95.06 164.53 24.84 22.34 -37.79 51.96 -93.84 220.08 -133.38 430.28 -151.49 566.51 -141.47 587.31 -99.21 505.25 -37.91 384.5 41.92 286.32 123.3 227.74 177.9 233.4 195.25 283.79 160.02 366.5 71.51 456.74 -55.66 535.46 -192.84 576.02 -253.53 611.5 -303.32 641.21 -337.98 670.97 -355.11 694.78 -352.5 712.28 -329.65 729.78 -289.18 740.55 -234.12 744.89 -169.29 749.26 -99.58 747.37 -30.23 739.82 33.82 727.1 130.74 700.53 169.94 678.48 150.61 688.75 80.19 740.73 -12.84 853.26 -101.83 1005.38 -175.64 1176.38 -211.82 1304.32 -208.39 1329.39 -171.15 1234.66 -105.47 1060.91 -24.83 929.24 67.93 931 158.84 1098.85 240.74 1325.72 321.01 1450.41 389.15 1362.02 444.99 1255.82 472.28 1136.43 496.98 1033.4 519.18 975.14 541.25 976.04 561.07 1038.37 578.57Q1038.37 578.57 1038.37 578.57" opacity="0.17"></path><path d="M999.32 441.44C1215.93 473.74 1395.75 492.22 1399.62 497.61 1230.76 502.96 1014.78 495.79 895.27 478.7 933.94 465.37 1085.6 448.72 1242.46 436.34 1325.79 440.45 1287.72 461.92 1160.37 508.42 988.55 580.63 837.94 678.12 740.82 793.04 699.3 907.16 706.37 1007.28 734.93 1072.24 782.49 1088.88 819.13 1050.23 834.43 961.01 848.75 847.53 839.82 731.49 807.51 645.34 775.21 618.28 721.04 652.59 645.79 733.89 569.57 844.67 474.15 950.36 370.6 1026.29 286.05 1063.12 225.77 1049.64 217.5 993.45 264.83 904.58 369.05 798.94 498.52 692.82 583.52 591.1 583.29 506.62 466.31 441.79 275.81 393.04 95.18 360.16 32.83 337.13 128.65 323.01 326.25 310.23 482.64 293.73 466.29 279.26 279.93 256.87 63.32 224.56 -2.9 192.26 134.9 151.56 357.7 105.1 501.54 60.67 470.83 14.68 310.58 -27.19 130.59 -60.15 57.08 -80.48 122.95 -81.53 291.35 -66.5 475.96 -28.41 603.99 30.96 647.96 94.73 611.5 162.07 535.23 217.3 438.36 239.86 365.91 224.37 330.18 163.87 318.3 64.27 336.35 -59.8 369.46 -183.05 410.86 -276.82 451.35 -317.69 483.66 -290.66 515.97 -204.52 538.56 -81.93 558.09 44.01 585.91 145.71 626.64 202.76 694.51 209.81 786.23 168.54 911.89 97.39 1058.56 16.91 1184.62 -64.36 1267.47 -123.55 1265.85 -153.41 1180.16 -157.57 1033.86 -132.66 899.1 -86.97 866.87 -24.8 969.35 45.05 1173.02 114.37 1356.96 187.45 1406.06 253.4 1274.69 308.97 1064.36 364.51 933.1 409.13 999.32 441.44Q999.32 441.44 999.32 441.44" opacity="0.38"></path><path d="M960.32 288.45C1246.55 327.18 1163.33 355.44 900.35 355.77 848.31 361.36 920.78 370.86 1059.14 390.52 1200.79 425.52 1272.24 478.34 1255.54 551.54 1162.36 639.5 1027.6 741.16 892.38 846.49 768.98 939.65 683.14 1010.84 631.64 1045.2 605.05 1037.35 594.7 984.29 586.14 893.16 583.54 787.49 570.08 683.53 540.46 606.34 510.84 578.99 466.48 603.31 413.22 669.29 365.93 765.38 322.39 864.71 297.67 946.66 297.83 1003.04 334.9 1019.54 412.66 997.64 502.23 943.32 594.47 864.9 648.84 775.25 626.72 678.61 520.15 587.73 347.67 508.51 178.47 437.37 79.44 380.14 109.78 334.78 251.97 296.53 433.26 264.96 537.1 236.51 483.84 210.19 299.27 182.96 102.32 153.34 33.3 123.72 140.12 93.12 341.17 63.6 510.05 36.19 547.32 13.88 450.59 0.8 280.61 -5.16 143.68 3.29 105.25 28.78 175.3 62.35 321.12 110.71 481.29 168.53 656.08 241.03 655.17 255.72 578.53 156.11 524.74 52.45 492.71 -63.71 484.07 -171.24 479.38 -248.65 493.06 -278.99 522.68 -251.66 552.3 -174.48 596.44 -64.51 656.99 52.58 721.49 155.14 807.39 225.07 912.51 254.64 1014.13 241.99 1115.58 197.36 1191.86 135.03 1219.43 60.54 1186 -6 1088 -55.14 966.64 -89.53 855.94 -99.83 816.73 -89.19 885.99 -63.21 1049.48 -23.93 1241.17 21.8 1359.6 73.99 1339.19 125.46 1181.74 171.74 992.12 219.22 891.3 258.83 960.32 288.45Q960.32 288.45 960.32 288.45" opacity="0.15"></path><path d="M921.32 178.16C1098.48 205.08 1271.06 226.51 1342.61 243.87 1281.36 262.88 1121.21 281.06 945.82 301.82 826.79 328.91 808.76 364.11 878.81 411 1005.01 468.43 1125.79 539.96 1200.56 624.21 1219.04 712.6 1175.61 804.09 1092.97 888.84 982.85 955.23 873.07 996.46 778.85 1003.26 691.64 975.93 625.84 913.57 577.78 824.13 534.65 727.73 501.16 635.84 474.24 567.34 447.31 540.16 428.22 555.66 420.58 607.1 417.87 687.46 434.69 776.53 475.23 857.97 522.8 925.62 588.24 964.5 656.86 972.21 698.01 952.32 702.78 906.58 649.01 843.7 538.95 767.31 386.26 687.12 232.02 610.16 133.94 533.61 127.82 465.86 227.11 408.28 382.77 354.32 527.6 309.05 578.45 271.24 496.52 234.89 318.48 203.46 141.32 176.53 71.06 149.61 148.86 128.47 321.94 114.04 498.73 101.07 589.61 97.37 564.19 104.66 442.57 115.59 294.5 138.99 186.88 174.05 151.72 209.52 203.14 251.04 312.76 292.15 454.62 319.74 586.85 333.56 687.01 325.42 754.64 289.68 784.94 226.66 791.76 139.29 779.12 38.11 764.13 -66.27 758.09 -157.03 749.13 -218.86 756.46 -239.83 783.39 -212.67 810.31 -144.17 855.55 -46.83 915.29 59.95 972.11 159.79 1036.08 237.48 1095.37 284.55 1135.22 297.49 1149.25 280.41 1123.12 242.05 1064.46 185.34 970.88 125.78 864.31 72.67 789.98 23.7 770.47 -9.16 833.67 -25.09 969.33 -30.49 1141.54 -21.36 1282.9 -1.78 1328.05 24.1 1252.49 54.9 1086.09 86.67 923.4 120.09 851.06 151.23 921.32 178.16Q921.32 178.16 921.32 178.16" opacity="0.79"></path><path d="M882.32 152.78C1039.72 177.01 1202.06 202.34 1294.27 229.44 1282.36 257.9 1172.39 290.66 1015.7 329.52 865.92 372.63 775.21 424.74 760.31 486.55 816.51 552.88 912.67 627.55 1012.47 706.9 1100.86 782.43 1149.2 853.14 1156.1 910.93 1129.13 948.94 1075.63 962.5 1011.42 946.77 936.1 905.66 866.54 839.02 809.91 754.43 752.74 668.41 711.07 588.44 686.83 528.34 662.6 501.81 656.96 509.72 668.43 547.72 679.36 612.06 704.84 688.03 738.17 763.41 760.38 834.24 773.98 886.65 763.61 916.32 719.36 925.72 636.23 911.84 516.08 879.46 384.52 832 259.63 774.73 178.2 713.91 167.87 648.24 236.85 585.4 368.86 528.65 507.79 472.07 603.98 422.97 606.53 382.25 504.97 342.04 337.72 309.5 180.32 285.27 110.39 261.03 161.88 246.26 303.07 240.78 534.53 238.3 527.37 281.62 348.27 321.41 246.4 344.88 202.9 367.36 220.43 383.07 289.88 383.69 391.07 368.84 499.15 334.22 609.36 279.31 700.29 205.18 768.54 116.59 823.61 23.46 861.52 -66.3 889.45 -140 912.68 -187.35 934.65 -200.18 958.88 -173.67 983.11 -113.57 1008.46 -28.7 1030.93 66.66 1048.69 160.62 1054.87 241.05 1041.79 299.93 1015.54 333.43 964.51 341.6 891.65 328.83 820.91 296.26 754.51 254.28 716.82 210.52 731.05 162.92 803.28 123.04 930.39 94.05 1175.8 64.27 835.68 117.56 882.32 152.78Q882.32 152.78 882.32 152.78" opacity="0.17"></path><path d="M843.37 222.05C981.15 243.59 1129.63 270.91 1233.22 303.78 1261.81 337.36 1205.32 377.71 1089.21 424.87 946.43 473.6 820.03 529.53 737.86 591.27 709.87 652.47 733.85 716.19 791.25 778.18 872.5 832.04 950.37 876.59 1010.61 906.12 1057.35 918.02 1078.08 908.9 1077.44 876.96 1063.65 827.98 1038.58 761.68 1010.03 684.56 977.95 609.69 949.39 541.36 927.85 489.35 906.31 463.94 892.81 465.54 884.27 491.49 872.2 540.22 858.08 601.44 834.55 666.47 797.86 733.38 741.66 790.43 661.72 832.86 568.29 862.89 459.49 874.78 350.01 870.23 264.38 852.79 214.86 823.36 220.43 786.37 280.17 742.46 387.26 696.34 514.24 651.63 614.57 604.81 658.8 562.2 621.9 525.82 509.99 489.16 357.15 459.46 219.37 437.92 151.29 416.38 179.77 404.03 287.57 400.06 436.16 395.82 573.42 399.25 659.31 408.74 675.9 416.12 627.05 426.77 538.18 437.48 429.25 441.28 336.72 439.79 279.03 428.99 257.23 405.31 276.37 367.89 324.34 315.44 395.18 250.58 473.55 174.22 547.8 91.52 624.3 10.71 688.36 -62.76 737.8 -119.81 785.89 -154.08 820.83 -160.06 842.37 -134.66 863.92 -82.66 871.04 -9.97 863.57 73.21 854.77 158.65 829.89 237.21 790.73 301.98 732.34 363.93 664.35 372.08 720.24 336.94 806.16 303.18 924.21 270.38 1055.58 242.39 1166.89 213.84 1235.07 193.38 1234.28 181.98 1164.21 172.14 1039.22 170.98 898.94 178.01 799.43 185.76 775.28 200.5 843.32 222.04Q843.37 222.05 843.37 222.05" opacity="0.53"></path><path d="M804.31 359.45C922.71 378.3 1054.42 404.32 1160.59 436.67 1218.12 469.09 1210.22 507.85 1144.99 551.79 1038.47 595.17 917.57 642.52 807.58 691.53 720.9 737.08 671.36 780.72 657.36 818.79 675.55 847.92 714.14 866.46 760.09 870.99 814.61 862.16 861.07 837.08 894.3 795.81 924.37 744.58 939.84 682.61 942.03 614.99 942.2 551.66 932.35 494.55 913.5 450.32 894.66 426.51 867.71 423.14 831.99 438.7 794.26 472.92 744.5 518.87 681.77 570.78 615.88 628.26 538.38 682.11 454.82 728.09 379.82 768.51 314.17 796.7 271.28 812.41 260.57 819.45 287.78 815.33 354.82 802.45 445.2 783.32 549.19 758.92 641.9 732.06 693.31 702.4 690.48 673.08 625.69 646.19 512.24 618.65 376.71 594.86 258.31 576.01 193.72 557.17 203.11 544.15 278.41 536.15 397.8 527.49 527.71 522.53 636.27 519.53 704.83 513.73 721.93 507.09 693.88 497.17 628.23 481.01 547.12 458.07 469.17 426.33 397.58 385.92 349.83 335.38 327.5 275.33 324.26 209.74 340.95 138.98 369.57 67.69 407.86 1.97 448.16 -54.71 484.36 -96.2 522.53 -119.03 552.34 -119.48 571.19 -95.67 590.04 -51.44 597.02 9.48 594.4 80.08 593.75 154.97 587.73 227.68 582.1 292.72 586.14 347.81 600.49 389.78 632.77 418.24 684.15 433.33 758.96 437.14 855.25 432.71 957.9 419.34 1061.36 402.76 1146.64 386.26 1194.3 366.29 1194.11 349.98 1139.37 339.26 1044.61 327.98 925.44 323.51 813.32 326.64 745.29 329.82 739.72 340.61 804.31 359.45Q804.31 359.45 804.31 359.45" opacity="0.24"></path><path d="M765.36 512.37C981.99 544.67 1155.77 598.37 1164.95 663.81 1021.47 722.97 823.62 779.91 677.06 815.46 605.35 822.13 608.22 786.87 632.88 706.09 677.85 607.17 693.02 497.48 660.71 411.33 628.4 384.3 551.68 413.73 450.71 479.91 370.06 573.29 316.77 656.78 346.13 711.92 532.14 752.98 607.42 695.89 297.36 646.78 231.08 614.47 367.13 586.53 578.52 556.6 736.66 517.67 760.6 461.56 689.74 380.99 564.74 283.51 469.48 165.75 430.44 48.69 414.15 -41.16 432.28 -83.69 464.59 -56.66 496.89 29.48 540.32 152.26 612.59 274.86 707.61 379.32 853.29 448.85 1020.64 484.52 1133.86 491.33 1144.22 484.81 1009.79 481.64 822.07 472.18 699.09 480.05 765.31 512.36Q765.36 512.37 765.36 512.37" opacity="0.89"></path><path d="M726.32 622.22C903.48 649.15 1069.91 684 1138.21 719.39 1094.47 748.62 965.48 767 820.95 763.47 683.77 741.8 593.26 690.06 543.46 610.97 514.02 527.51 493.99 440.84 467.07 372.34 440.15 345.16 408.88 356.98 391.66 397.1 394.8 462.76 443.28 529.68 545.18 582.88 654.42 632.47 754.85 659.49 778.86 664.54 690.83 664.82 513.48 649.96 336.32 623.04 266.06 596.11 343.26 559.68 504.55 512.73 677.96 461.02 788.18 391.99 820.48 307.11 787.65 218.62 728.73 123.15 683.94 37.75 635.06 -22.1 621.23 -44.83 648.16 -17.65 675.08 50.84 740.21 148.42 835.74 251.62 927.2 350.44 1028.13 430.74 1096.26 487.7 1099.24 526.52 1017.58 550.15 863.9 567.58 722.35 578.86 656.06 595.3 726.32 622.22Q726.32 622.22 726.32 622.22" opacity="0.70"></path><path d="M687.37 647.06C825.14 668.6 968.05 685.82 1062.94 695.47 1096.66 701.31 1059.8 693.28 982.16 667.6 877.18 633.8 777.34 581.03 701.57 513.99 629.57 449.62 582.24 385.36 560.7 333.35 539.16 307.94 545.46 306.93 580.13 325.21 618.57 363.15 684.8 406.44 761.54 445.12 810.95 487.16 824.97 516.27 775.46 528.71 664.78 540.04 513.14 535.46 375.37 513.92 307.29 492.38 336.23 455.93 435.74 407.26 573.9 357.5 704.08 294.77 797.21 224.5 856.96 157.6 880.71 91.46 887.82 37.73 882.18 3.66 884.24 -4.05 905.78 21.35 927.3 73.35 966.28 146.35 1009.25 226.5 1039.48 309.33 1049.35 384.94 1017.85 446.98 952.96 500.89 845.63 542.54 723.26 574.02 639.52 601.7 619.28 625.52 687.32 647.05Q687.37 647.06 687.37 647.06" opacity="0.91"></path><path d="M648.37 577.31C864.98 609.62 1026.44 597.97 1043.26 541.11 966.39 477.5 863.61 380.5 831.31 294.35 799 267.29 843.28 287.03 877.8 320.04 818.64 371.83 630.98 393.49 414.37 361.19 348.09 328.88 480.85 248.71 651.57 154.58 813.55 79.23 901.63 33.29 933.94 60.35 966.24 146.5 936.66 269.69 817.04 375.64 688.67 474.86 582.09 545 648.32 577.3Q648.37 577.31 648.37 577.31" opacity="0.43"></path><path d="M609.37 439.69C747.12 461.22 878.82 445.68 949.01 403.25 988.12 363.51 981.76 307.35 960.23 255.35 938.69 229.94 906.04 223.75 838.7 226.61 740.29 241.27 591.12 244.84 453.37 223.31 385.29 201.77 415.32 159.19 491.42 116.31 595.46 85.21 678.01 73.94 699.55 99.35 721.08 151.35 677.54 224.97 601.73 292.95 553.85 363.6 541.29 418.15 609.37 439.69Q609.37 439.69 609.37 439.69" opacity="0.28"></path></g></svg>