<svg xmlns="http://www.w3.org/2000/svg" version="1.1" xmlns:xlink="http://www.w3.org/1999/xlink" xmlns:svgjs="http://svgjs.dev/svgjs" viewBox="0 0 800 800"><g fill="#004a0a" transform="matrix(1.3,0,0,1.3,-120,-119.85000000000002)"><circle r="0.5" cx="405" cy="400" opacity="0.69"></circle><circle r="0.5" cx="404" cy="404" opacity="0.73"></circle><circle r="0.5" cx="400" cy="407" opacity="0.19"></circle><circle r="0.5" cx="395" cy="405" opacity="0.42"></circle><circle r="0.5" cx="392" cy="400" opacity="0.60"></circle><circle r="0.5" cx="394" cy="393" opacity="0.19"></circle><circle r="0.5" cx="401" cy="390" opacity="0.83"></circle><circle r="0.5" cx="408" cy="393" opacity="0.53"></circle><circle r="0.5" cx="411" cy="401" opacity="0.68"></circle><circle r="0.5" cx="407" cy="410" opacity="0.64"></circle><circle r="0.5" cx="398" cy="413" opacity="0.80"></circle><circle r="0.5" cx="389" cy="408" opacity="0.16"></circle><circle r="0.5" cx="386" cy="397" opacity="0.70"></circle><circle r="0.5" cx="391" cy="387" opacity="0.64"></circle><circle r="0.5" cx="403" cy="384" opacity="0.60"></circle><circle r="0.5" cx="414" cy="391" opacity="0.57"></circle><circle r="0.5" cx="417" cy="404" opacity="0.44"></circle><circle r="0.5" cx="410" cy="416" opacity="0.24"></circle><circle r="0.5" cx="395" cy="419" opacity="0.16"></circle><circle r="0.5" cx="382" cy="410" opacity="0.45"></circle><circle r="0.5" cx="380" cy="394" opacity="0.76"></circle><circle r="0.5" cx="390" cy="381" opacity="0.53"></circle><circle r="0.5" cx="407" cy="379" opacity="0.96"></circle><circle r="0.5" cx="421" cy="390" opacity="0.70"></circle><circle r="0.5" cx="423" cy="408" opacity="0.99"></circle><circle r="0.5" cx="410" cy="423" opacity="0.31"></circle><circle r="0.5" cx="390" cy="424" opacity="0.92"></circle><circle r="0.5" cx="375" cy="410" opacity="0.31"></circle><circle r="0.5" cx="375" cy="389" opacity="0.14"></circle><circle r="1" cx="390" cy="374" opacity="0.22"></circle><circle r="1" cx="412" cy="374" opacity="0.93"></circle><circle r="1" cx="428" cy="390" opacity="0.98"></circle><circle r="1" cx="427" cy="414" opacity="0.14"></circle><circle r="1" cx="409" cy="430" opacity="0.12"></circle><circle r="1" cx="385" cy="428" opacity="0.79"></circle><circle r="1" cx="368" cy="409" opacity="0.49"></circle><circle r="1" cx="371" cy="383" opacity="0.74"></circle><circle r="1" cx="392" cy="366" opacity="0.86"></circle><circle r="1" cx="419" cy="370" opacity="0.89"></circle><circle r="1" cx="435" cy="392" opacity="0.18"></circle><circle r="1" cx="431" cy="420" opacity="0.34"></circle><circle r="1" cx="407" cy="437" opacity="0.86"></circle><circle r="1" cx="378" cy="432" opacity="0.27"></circle><circle r="1" cx="361" cy="406" opacity="0.93"></circle><circle r="1" cx="368" cy="376" opacity="0.21"></circle><circle r="1" cx="395" cy="359" opacity="0.62"></circle><circle r="1" cx="426" cy="367" opacity="0.57"></circle><circle r="1" cx="442" cy="396" opacity="0.74"></circle><circle r="1" cx="433" cy="428" opacity="0.57"></circle><circle r="1" cx="403" cy="444" opacity="0.16"></circle><circle r="1" cx="370" cy="434" opacity="0.25"></circle><circle r="1" cx="354" cy="402" opacity="0.91"></circle><circle r="1" cx="366" cy="368" opacity="0.58"></circle><circle r="1" cx="399" cy="353" opacity="0.27"></circle><circle r="1" cx="434" cy="366" opacity="0.47"></circle><circle r="1" cx="449" cy="401" opacity="0.19"></circle><circle r="1" cx="434" cy="436" opacity="0.42"></circle><circle r="1" cx="398" cy="451" opacity="0.21"></circle><circle r="1" cx="361" cy="434" opacity="0.64"></circle><circle r="1" cx="348" cy="396" opacity="0.92"></circle><circle r="1" cx="366" cy="359" opacity="0.18"></circle><circle r="1" cx="406" cy="346" opacity="0.23"></circle><circle r="1" cx="443" cy="366" opacity="0.84"></circle><circle r="1" cx="455" cy="407" opacity="0.12"></circle><circle r="1" cx="433" cy="445" opacity="0.21"></circle><circle r="1" cx="391" cy="456" opacity="0.22"></circle><circle r="1" cx="353" cy="433" opacity="0.42"></circle><circle r="1" cx="342" cy="389" opacity="0.46"></circle><circle r="1" cx="368" cy="350" opacity="0.77"></circle><circle r="1" cx="413" cy="341" opacity="0.58"></circle><circle r="1" cx="452" cy="368" opacity="0.78"></circle><circle r="1" cx="460" cy="415" opacity="0.46"></circle><circle r="1" cx="431" cy="454" opacity="0.59"></circle><circle r="1" cx="382" cy="461" opacity="0.92"></circle><circle r="1" cx="343" cy="430" opacity="0.36"></circle><circle r="1" cx="338" cy="380" opacity="0.60"></circle><circle r="1" cx="371" cy="341" opacity="0.57"></circle><circle r="1" cx="422" cy="337" opacity="0.29"></circle><circle r="1" cx="461" cy="372" opacity="0.40"></circle><circle r="1" cx="464" cy="425" opacity="0.59"></circle><circle r="1" cx="427" cy="463" opacity="0.98"></circle><circle r="1" cx="373" cy="464" opacity="0.79"></circle><circle r="1" cx="334" cy="426" opacity="0.14"></circle><circle r="1" cx="335" cy="370" opacity="0.98"></circle><circle r="1" cx="376" cy="332" opacity="0.63"></circle><circle r="1" cx="432" cy="334" opacity="0.32"></circle><circle r="1.5" cx="470" cy="377" opacity="0.71"></circle><circle r="1.5" cx="466" cy="435" opacity="0.80"></circle><circle r="1.5" cx="421" cy="472" opacity="0.12"></circle><circle r="1.5" cx="363" cy="466" opacity="0.26"></circle><circle r="1.5" cx="326" cy="420" opacity="0.80"></circle><circle r="1.5" cx="333" cy="360" opacity="0.76"></circle><circle r="1.5" cx="382" cy="323" opacity="0.62"></circle><circle r="1.5" cx="443" cy="333" opacity="0.22"></circle><circle r="1.5" cx="479" cy="384" opacity="0.81"></circle><circle r="1.5" cx="467" cy="446" opacity="0.86"></circle><circle r="1.5" cx="414" cy="481" opacity="0.22"></circle><circle r="1.5" cx="351" cy="467" opacity="0.28"></circle><circle r="1.5" cx="317" cy="412" opacity="0.43"></circle><circle r="1.5" cx="333" cy="348" opacity="0.20"></circle><circle r="1.5" cx="391" cy="316" opacity="0.45"></circle><circle r="1.5" cx="455" cy="334" opacity="0.78"></circle><circle r="1.5" cx="486" cy="393" opacity="0.79"></circle><circle r="1.5" cx="466" cy="458" opacity="0.35"></circle><circle r="1.5" cx="405" cy="488" opacity="0.38"></circle><circle r="1.5" cx="339" cy="465" opacity="0.76"></circle><circle r="1.5" cx="310" cy="402" opacity="0.64"></circle><circle r="1.5" cx="335" cy="336" opacity="0.64"></circle><circle r="1.5" cx="401" cy="309" opacity="0.51"></circle><circle r="1.5" cx="467" cy="336" opacity="0.91"></circle><circle r="1.5" cx="493" cy="403" opacity="0.73"></circle><circle r="1.5" cx="463" cy="470" opacity="0.13"></circle><circle r="1.5" cx="394" cy="494" opacity="0.23"></circle><circle r="1.5" cx="327" cy="462" opacity="0.39"></circle><circle r="1.5" cx="304" cy="391" opacity="0.84"></circle><circle r="1.5" cx="339" cy="324" opacity="0.22"></circle><circle r="1.5" cx="412" cy="303" opacity="0.90"></circle><circle r="1.5" cx="479" cy="341" opacity="0.18"></circle><circle r="1.5" cx="498" cy="415" opacity="0.18"></circle><circle r="1.5" cx="458" cy="482" opacity="0.41"></circle><circle r="1.5" cx="382" cy="499" opacity="0.96"></circle><circle r="1.5" cx="315" cy="457" opacity="0.73"></circle><circle r="1.5" cx="300" cy="379" opacity="0.87"></circle><circle r="1.5" cx="345" cy="312" opacity="0.39"></circle><circle r="1.5" cx="425" cy="299" opacity="0.12"></circle><circle r="1.5" cx="491" cy="347" opacity="0.91"></circle><circle r="1.5" cx="502" cy="428" opacity="0.26"></circle><circle r="1.5" cx="451" cy="493" opacity="0.55"></circle><circle r="1.5" cx="368" cy="503" opacity="0.17"></circle><circle r="1.5" cx="304" cy="449" opacity="0.99"></circle><circle r="1.5" cx="297" cy="365" opacity="0.21"></circle><circle r="1.5" cx="353" cy="301" opacity="0.82"></circle><circle r="1.5" cx="439" cy="296" opacity="0.28"></circle><circle r="1.5" cx="502" cy="355" opacity="0.94"></circle><circle r="1.5" cx="504" cy="442" opacity="0.96"></circle><circle r="1.5" cx="442" cy="505" opacity="0.51"></circle><circle r="1.5" cx="354" cy="504" opacity="0.97"></circle><circle r="1.5" cx="293" cy="440" opacity="0.34"></circle><circle r="1.5" cx="296" cy="350" opacity="0.56"></circle><circle r="1.5" cx="363" cy="290" opacity="0.18"></circle><circle r="1.5" cx="453" cy="296" opacity="0.73"></circle><circle r="1.5" cx="513" cy="365" opacity="0.85"></circle><circle r="1.5" cx="504" cy="457" opacity="0.18"></circle><circle r="2" cx="432" cy="515" opacity="0.56"></circle><circle r="2" cx="339" cy="504" opacity="0.52"></circle><circle r="2" cx="282" cy="429" opacity="0.79"></circle><circle r="2" cx="297" cy="335" opacity="0.41"></circle><circle r="2" cx="374" cy="280" opacity="0.44"></circle><circle r="2" cx="469" cy="297" opacity="0.75"></circle><circle r="2" cx="522" cy="378" opacity="0.68"></circle><circle r="2" cx="502" cy="473" opacity="0.87"></circle><circle r="2" cx="419" cy="524" opacity="0.78"></circle><circle r="2" cx="324" cy="501" opacity="0.85"></circle><circle r="2" cx="274" cy="416" opacity="0.55"></circle><circle r="2" cx="300" cy="320" opacity="0.45"></circle><circle r="2" cx="388" cy="272" opacity="0.71"></circle><circle r="2" cx="484" cy="301" opacity="0.62"></circle><circle r="2" cx="530" cy="392" opacity="0.22"></circle><circle r="2" cx="497" cy="488" opacity="0.15"></circle><circle r="2" cx="405" cy="532" opacity="0.26"></circle><circle r="2" cx="308" cy="496" opacity="0.38"></circle><circle r="2" cx="266" cy="401" opacity="0.54"></circle><circle r="2" cx="306" cy="304" opacity="0.25"></circle><circle r="2" cx="403" cy="265" opacity="0.51"></circle><circle r="2" cx="500" cy="307" opacity="0.24"></circle><circle r="2" cx="537" cy="407" opacity="0.18"></circle><circle r="2" cx="491" cy="504" opacity="0.48"></circle><circle r="2" cx="389" cy="538" opacity="0.33"></circle><circle r="2" cx="292" cy="489" opacity="0.36"></circle><circle r="2" cx="261" cy="384" opacity="0.54"></circle><circle r="2" cx="314" cy="289" opacity="0.97"></circle><circle r="2" cx="420" cy="260" opacity="0.42"></circle><circle r="2" cx="515" cy="316" opacity="0.94"></circle><circle r="2" cx="541" cy="424" opacity="0.71"></circle><circle r="2" cx="482" cy="519" opacity="0.23"></circle><circle r="2" cx="371" cy="542" opacity="0.33"></circle><circle r="2" cx="277" cy="479" opacity="0.68"></circle><circle r="2" cx="257" cy="367" opacity="0.60"></circle><circle r="2" cx="324" cy="274" opacity="0.58"></circle><circle r="2" cx="438" cy="257" opacity="0.16"></circle><circle r="2" cx="530" cy="327" opacity="0.84"></circle><circle r="2" cx="544" cy="442" opacity="0.67"></circle><circle r="2" cx="470" cy="533" opacity="0.33"></circle><circle r="2" cx="353" cy="544" opacity="0.59"></circle><circle r="2" cx="263" cy="467" opacity="0.56"></circle><circle r="2" cx="256" cy="348" opacity="0.55"></circle><circle r="2" cx="336" cy="260" opacity="0.58"></circle><circle r="2" cx="457" cy="256" opacity="0.92"></circle><circle r="2" cx="543" cy="340" opacity="0.66"></circle><circle r="2" cx="544" cy="461" opacity="0.39"></circle><circle r="2" cx="456" cy="547" opacity="0.85"></circle><circle r="2" cx="334" cy="543" opacity="0.76"></circle><circle r="2" cx="250" cy="453" opacity="0.41"></circle><circle r="2" cx="257" cy="329" opacity="0.56"></circle><circle r="2" cx="351" cy="247" opacity="0.27"></circle><circle r="2" cx="476" cy="258" opacity="0.12"></circle><circle r="2" cx="556" cy="355" opacity="0.33"></circle><circle r="2" cx="541" cy="481" opacity="0.15"></circle><circle r="2" cx="440" cy="558" opacity="0.24"></circle><circle r="2.5" cx="314" cy="540" opacity="0.78"></circle><circle r="2.5" cx="239" cy="436" opacity="0.23"></circle><circle r="2.5" cx="261" cy="309" opacity="0.23"></circle><circle r="2.5" cx="368" cy="236" opacity="0.35"></circle><circle r="2.5" cx="496" cy="263" opacity="0.36"></circle><circle r="2.5" cx="566" cy="373" opacity="0.75"></circle><circle r="2.5" cx="536" cy="501" opacity="0.53"></circle><circle r="2.5" cx="423" cy="568" opacity="0.81"></circle><circle r="2.5" cx="295" cy="534" opacity="0.82"></circle><circle r="2.5" cx="230" cy="418" opacity="0.26"></circle><circle r="2.5" cx="268" cy="290" opacity="0.91"></circle><circle r="2.5" cx="387" cy="227" opacity="0.82"></circle><circle r="2.5" cx="515" cy="270" opacity="0.75"></circle><circle r="2.5" cx="574" cy="392" opacity="0.63"></circle><circle r="2.5" cx="528" cy="520" opacity="0.55"></circle><circle r="2.5" cx="403" cy="576" opacity="0.91"></circle><circle r="2.5" cx="275" cy="525" opacity="0.89"></circle><circle r="2.5" cx="222" cy="398" opacity="0.40"></circle><circle r="2.5" cx="277" cy="270" opacity="0.89"></circle><circle r="2.5" cx="407" cy="221" opacity="0.83"></circle><circle r="2.5" cx="534" cy="280" opacity="0.56"></circle><circle r="2.5" cx="581" cy="413" opacity="0.73"></circle><circle r="2.5" cx="517" cy="539" opacity="0.90"></circle><circle r="2.5" cx="382" cy="582" opacity="0.36"></circle><circle r="2.5" cx="256" cy="514" opacity="0.55"></circle><circle r="2.5" cx="217" cy="376" opacity="0.25"></circle><circle r="2.5" cx="289" cy="252" opacity="0.97"></circle><circle r="2.5" cx="429" cy="217" opacity="0.56"></circle><circle r="2.5" cx="553" cy="293" opacity="0.80"></circle><circle r="2.5" cx="584" cy="435" opacity="0.31"></circle><circle r="2.5" cx="504" cy="557" opacity="0.98"></circle><circle r="2.5" cx="359" cy="585" opacity="0.36"></circle><circle r="2.5" cx="239" cy="500" opacity="0.77"></circle><circle r="2.5" cx="215" cy="354" opacity="0.10"></circle><circle r="2.5" cx="304" cy="234" opacity="0.58"></circle><circle r="2.5" cx="452" cy="215" opacity="0.36"></circle><circle r="2.5" cx="570" cy="308" opacity="0.64"></circle><circle r="2.5" cx="585" cy="458" opacity="0.15"></circle><circle r="2.5" cx="487" cy="574" opacity="0.19"></circle><circle r="2.5" cx="336" cy="585" opacity="0.20"></circle><circle r="2.5" cx="222" cy="483" opacity="0.19"></circle><circle r="2.5" cx="216" cy="330" opacity="0.51"></circle><circle r="2.5" cx="322" cy="218" opacity="0.16"></circle><circle r="2.5" cx="476" cy="216" opacity="0.70"></circle><circle r="2.5" cx="585" cy="326" opacity="0.73"></circle><circle r="2.5" cx="583" cy="482" opacity="0.32"></circle><circle r="2.5" cx="469" cy="589" opacity="0.20"></circle><circle r="2.5" cx="312" cy="582" opacity="0.83"></circle><circle r="2.5" cx="208" cy="464" opacity="0.42"></circle><circle r="2.5" cx="220" cy="306" opacity="0.85"></circle><circle r="2.5" cx="341" cy="204" opacity="0.45"></circle><circle r="2.5" cx="500" cy="221" opacity="0.64"></circle><circle r="2.5" cx="599" cy="347" opacity="0.70"></circle><circle r="2.5" cx="577" cy="506" opacity="0.14"></circle><circle r="2.5" cx="448" cy="602" opacity="0.39"></circle><circle r="2.5" cx="288" cy="576" opacity="0.70"></circle><circle r="2.5" cx="195" cy="442" opacity="0.64"></circle><circle r="3" cx="226" cy="282" opacity="0.24"></circle><circle r="3" cx="363" cy="193" opacity="0.80"></circle><circle r="3" cx="524" cy="229" opacity="0.27"></circle><circle r="3" cx="610" cy="369" opacity="0.78"></circle><circle r="3" cx="569" cy="530" opacity="0.28"></circle><circle r="3" cx="425" cy="612" opacity="0.86"></circle><circle r="3" cx="264" cy="566" opacity="0.85"></circle><circle r="3" cx="185" cy="419" opacity="0.57"></circle><circle r="3" cx="237" cy="259" opacity="0.71"></circle><circle r="3" cx="388" cy="183" opacity="0.61"></circle><circle r="3" cx="547" cy="240" opacity="0.59"></circle><circle r="3" cx="619" cy="394" opacity="0.79"></circle><circle r="3" cx="557" cy="553" opacity="0.88"></circle><circle r="3" cx="400" cy="620" opacity="0.60"></circle><circle r="3" cx="241" cy="554" opacity="0.23"></circle><circle r="3" cx="178" cy="393" opacity="0.57"></circle><circle r="3" cx="250" cy="236" opacity="0.81"></circle><circle r="3" cx="413" cy="177" opacity="0.35"></circle><circle r="3" cx="570" cy="254" opacity="0.38"></circle><circle r="3" cx="624" cy="420" opacity="0.54"></circle><circle r="3" cx="542" cy="575" opacity="0.48"></circle><circle r="3" cx="373" cy="625" opacity="0.95"></circle><circle r="3" cx="219" cy="538" opacity="0.14"></circle><circle r="3" cx="174" cy="367" opacity="0.70"></circle><circle r="3" cx="266" cy="214" opacity="0.57"></circle><circle r="3" cx="440" cy="174" opacity="0.66"></circle><circle r="3" cx="591" cy="271" opacity="0.58"></circle><circle r="3" cx="627" cy="447" opacity="0.19"></circle><circle r="3" cx="524" cy="596" opacity="0.65"></circle><circle r="3" cx="346" cy="627" opacity="0.85"></circle><circle r="3" cx="199" cy="519" opacity="0.43"></circle><circle r="3" cx="174" cy="339" opacity="0.98"></circle><circle r="3" cx="286" cy="194" opacity="0.15"></circle><circle r="3" cx="468" cy="174" opacity="0.40"></circle><circle r="3" cx="610" cy="291" opacity="0.23"></circle><circle r="3" cx="626" cy="475" opacity="0.70"></circle><circle r="3" cx="503" cy="615" opacity="0.59"></circle><circle r="3" cx="318" cy="625" opacity="0.56"></circle><circle r="3" cx="181" cy="498" opacity="0.64"></circle><circle r="3" cx="176" cy="310" opacity="0.28"></circle><circle r="3" cx="308" cy="176" opacity="0.62"></circle><circle r="3" cx="497" cy="177" opacity="0.61"></circle><circle r="3" cx="628" cy="314" opacity="0.89"></circle><circle r="3" cx="621" cy="504" opacity="0.61"></circle><circle r="3" cx="480" cy="632" opacity="0.51"></circle><circle r="3" cx="289" cy="619" opacity="0.62"></circle><circle r="3" cx="165" cy="473" opacity="0.60"></circle><circle r="3" cx="183" cy="282" opacity="0.81"></circle><circle r="3" cx="333" cy="161" opacity="0.74"></circle><circle r="3" cx="525" cy="185" opacity="0.50"></circle><circle r="3" cx="642" cy="340" opacity="0.96"></circle><circle r="3" cx="613" cy="532" opacity="0.87"></circle><circle r="3" cx="454" cy="646" opacity="0.13"></circle><circle r="3" cx="261" cy="610" opacity="0.67"></circle><circle r="3" cx="151" cy="447" opacity="0.75"></circle><circle r="3" cx="193" cy="254" opacity="0.49"></circle><circle r="3" cx="360" cy="149" opacity="0.76"></circle><circle r="3.5" cx="553" cy="196" opacity="0.35"></circle><circle r="3.5" cx="654" cy="367" opacity="0.41"></circle><circle r="3.5" cx="601" cy="560" opacity="0.59"></circle><circle r="3.5" cx="425" cy="657" opacity="0.93"></circle><circle r="3.5" cx="233" cy="597" opacity="0.39"></circle><circle r="3.5" cx="141" cy="418" opacity="0.25"></circle><circle r="3.5" cx="206" cy="226" opacity="0.22"></circle><circle r="3.5" cx="390" cy="139" opacity="0.19"></circle><circle r="3.5" cx="580" cy="210" opacity="0.89"></circle><circle r="3.5" cx="663" cy="397" opacity="0.28"></circle><circle r="3.5" cx="586" cy="587" opacity="0.39"></circle><circle r="3.5" cx="395" cy="664" opacity="0.44"></circle><circle r="3.5" cx="206" cy="581" opacity="0.53"></circle><circle r="3.5" cx="135" cy="387" opacity="0.68"></circle><circle r="3.5" cx="224" cy="200" opacity="0.90"></circle><circle r="3.5" cx="421" cy="133" opacity="0.45"></circle><circle r="3.5" cx="606" cy="228" opacity="0.37"></circle><circle r="3.5" cx="667" cy="429" opacity="0.84"></circle><circle r="3.5" cx="566" cy="612" opacity="0.43"></circle><circle r="3.5" cx="363" cy="668" opacity="0.78"></circle><circle r="3.5" cx="182" cy="561" opacity="0.25"></circle><circle r="3.5" cx="131" cy="355" opacity="0.81"></circle><circle r="3.5" cx="244" cy="176" opacity="0.50"></circle><circle r="3.5" cx="453" cy="131" opacity="0.89"></circle><circle r="3.5" cx="630" cy="250" opacity="0.50"></circle><circle r="3.5" cx="669" cy="461" opacity="0.23"></circle><circle r="3.5" cx="544" cy="636" opacity="0.60"></circle><circle r="3.5" cx="331" cy="668" opacity="0.60"></circle><circle r="3.5" cx="159" cy="538" opacity="0.80"></circle><circle r="3.5" cx="132" cy="323" opacity="0.20"></circle><circle r="3.5" cx="269" cy="153" opacity="0.75"></circle><circle r="3.5" cx="486" cy="133" opacity="0.45"></circle><circle r="3.5" cx="652" cy="275" opacity="0.14"></circle><circle r="3.5" cx="666" cy="494" opacity="0.84"></circle><circle r="3.5" cx="518" cy="657" opacity="0.72"></circle><circle r="3.5" cx="298" cy="664" opacity="0.14"></circle><circle r="3.5" cx="138" cy="511" opacity="0.16"></circle><circle r="3.5" cx="137" cy="289" opacity="0.71"></circle><circle r="3.5" cx="296" cy="134" opacity="0.35"></circle><circle r="3.5" cx="519" cy="139" opacity="0.85"></circle><circle r="3.5" cx="671" cy="303" opacity="0.52"></circle><circle r="3.5" cx="659" cy="527" opacity="0.53"></circle><circle r="3.5" cx="489" cy="675" opacity="0.66"></circle><circle r="3.5" cx="265" cy="656" opacity="0.72"></circle><circle r="3.5" cx="121" cy="482" opacity="0.95"></circle><circle r="3.5" cx="146" cy="256" opacity="0.99"></circle><circle r="3.5" cx="326" cy="117" opacity="0.24"></circle><circle r="3.5" cx="552" cy="149" opacity="0.60"></circle><circle r="3.5" cx="686" cy="334" opacity="0.10"></circle><circle r="3.5" cx="647" cy="560" opacity="0.45"></circle><circle r="3.5" cx="458" cy="690" opacity="0.60"></circle><circle r="3.5" cx="232" cy="644" opacity="0.67"></circle><circle r="3.5" cx="107" cy="450" opacity="0.66"></circle><circle r="3.5" cx="160" cy="224" opacity="0.22"></circle><circle r="3.5" cx="359" cy="104" opacity="0.57"></circle><circle r="3.5" cx="584" cy="164" opacity="0.29"></circle><circle r="3.5" cx="698" cy="367" opacity="0.18"></circle><circle r="4" cx="632" cy="592" opacity="0.24"></circle><circle r="4" cx="424" cy="701" opacity="0.60"></circle><circle r="4" cx="201" cy="628" opacity="0.14"></circle><circle r="4" cx="97" cy="416" opacity="0.45"></circle><circle r="4" cx="177" cy="193" opacity="0.21"></circle><circle r="4" cx="393" cy="95" opacity="0.11"></circle><circle r="4" cx="615" cy="182" opacity="0.43"></circle><circle r="4" cx="707" cy="402" opacity="0.79"></circle><circle r="4" cx="613" cy="622" opacity="0.26"></circle><circle r="4" cx="389" cy="708" opacity="0.23"></circle><circle r="4" cx="171" cy="607" opacity="0.66"></circle><circle r="4" cx="91" cy="380" opacity="0.60"></circle><circle r="4" cx="199" cy="164" opacity="0.39"></circle><circle r="4" cx="429" cy="90" opacity="0.72"></circle><circle r="4" cx="644" cy="205" opacity="0.38"></circle><circle r="4" cx="711" cy="439" opacity="0.35"></circle><circle r="4" cx="589" cy="650" opacity="0.56"></circle><circle r="4" cx="352" cy="711" opacity="0.96"></circle><circle r="4" cx="143" cy="583" opacity="0.75"></circle><circle r="4" cx="89" cy="343" opacity="0.54"></circle><circle r="4" cx="224" cy="136" opacity="0.79"></circle><circle r="4" cx="467" cy="89" opacity="0.57"></circle><circle r="4" cx="670" cy="231" opacity="0.26"></circle><circle r="4" cx="710" cy="476" opacity="0.27"></circle><circle r="4" cx="562" cy="676" opacity="0.13"></circle><circle r="4" cx="314" cy="709" opacity="0.85"></circle><circle r="4" cx="118" cy="555" opacity="0.58"></circle><circle r="4" cx="92" cy="305" opacity="0.29"></circle><circle r="4" cx="253" cy="112" opacity="0.34"></circle><circle r="4" cx="505" cy="93" opacity="0.15"></circle><circle r="4" cx="694" cy="261" opacity="0.82"></circle><circle r="4" cx="705" cy="514" opacity="0.61"></circle><circle r="4" cx="531" cy="699" opacity="0.89"></circle><circle r="4" cx="277" cy="703" opacity="0.45"></circle><circle r="4" cx="96" cy="523" opacity="0.45"></circle><circle r="4" cx="99" cy="267" opacity="0.48"></circle><circle r="4" cx="285" cy="91" opacity="0.20"></circle><circle r="4" cx="542" cy="102" opacity="0.77"></circle><circle r="4" cx="714" cy="294" opacity="0.61"></circle><circle r="4" cx="696" cy="552" opacity="0.67"></circle><circle r="4" cx="497" cy="718" opacity="0.86"></circle><circle r="4" cx="239" cy="692" opacity="0.90"></circle><circle r="4" cx="77" cy="488" opacity="0.90"></circle><circle r="4" cx="111" cy="230" opacity="0.23"></circle><circle r="4" cx="321" cy="73" opacity="0.72"></circle><circle r="4" cx="580" cy="115" opacity="0.44"></circle><circle r="4" cx="730" cy="330" opacity="0.88"></circle><circle r="4" cx="681" cy="589" opacity="0.73"></circle><circle r="4" cx="461" cy="734" opacity="0.32"></circle><circle r="4" cx="202" cy="677" opacity="0.28"></circle><circle r="4" cx="63" cy="451" opacity="0.81"></circle><circle r="4" cx="128" cy="193" opacity="0.10"></circle><circle r="4" cx="359" cy="60" opacity="0.29"></circle><circle r="4" cx="616" cy="133" opacity="0.25"></circle><circle r="4" cx="743" cy="368" opacity="0.58"></circle><circle r="4" cx="662" cy="624" opacity="0.81"></circle><circle r="4" cx="422" cy="745" opacity="0.86"></circle><circle r="4.5" cx="167" cy="657" opacity="0.96"></circle><circle r="4.5" cx="53" cy="412" opacity="0.44"></circle><circle r="4.5" cx="149" cy="159" opacity="0.56"></circle><circle r="4.5" cx="398" cy="51" opacity="0.36"></circle><circle r="4.5" cx="650" cy="155" opacity="0.92"></circle><circle r="4.5" cx="750" cy="409" opacity="0.59"></circle><circle r="4.5" cx="638" cy="658" opacity="0.61"></circle><circle r="4.5" cx="381" cy="752" opacity="0.83"></circle><circle r="4.5" cx="134" cy="632" opacity="0.36"></circle><circle r="4.5" cx="47" cy="371" opacity="0.33"></circle><circle r="4.5" cx="175" cy="126" opacity="0.94"></circle><circle r="4.5" cx="440" cy="47" opacity="0.12"></circle><circle r="4.5" cx="682" cy="182" opacity="0.24"></circle><circle r="4.5" cx="753" cy="450" opacity="0.50"></circle><circle r="4.5" cx="611" cy="689" opacity="0.26"></circle><circle r="4.5" cx="339" cy="753" opacity="0.42"></circle><circle r="4.5" cx="103" cy="603" opacity="0.33"></circle><circle r="4.5" cx="47" cy="328" opacity="0.65"></circle><circle r="4.5" cx="205" cy="96" opacity="0.23"></circle><circle r="4.5" cx="482" cy="48" opacity="0.28"></circle><circle r="4.5" cx="711" cy="213" opacity="0.47"></circle><circle r="4.5" cx="751" cy="493" opacity="0.43"></circle><circle r="4.5" cx="579" cy="717" opacity="0.60"></circle><circle r="4.5" cx="296" cy="750" opacity="0.24"></circle><circle r="4.5" cx="76" cy="570" opacity="0.31"></circle><circle r="4.5" cx="52" cy="286" opacity="0.92"></circle><circle r="4.5" cx="239" cy="70" opacity="0.16"></circle><circle r="4.5" cx="525" cy="54" opacity="0.95"></circle><circle r="4.5" cx="736" cy="248" opacity="0.22"></circle><circle r="4.5" cx="744" cy="536" opacity="0.63"></circle><circle r="4.5" cx="543" cy="742" opacity="0.80"></circle><circle r="4.5" cx="254" cy="741" opacity="0.60"></circle><circle r="4.5" cx="52" cy="533" opacity="0.35"></circle><circle r="4.5" cx="62" cy="243" opacity="0.84"></circle><circle r="4.5" cx="276" cy="47" opacity="0.61"></circle><circle r="4.5" cx="567" cy="65" opacity="0.33"></circle><circle r="4.5" cx="758" cy="286" opacity="0.84"></circle><circle r="4.5" cx="732" cy="578" opacity="0.67"></circle><circle r="4.5" cx="504" cy="762" opacity="1.00"></circle><circle r="4.5" cx="212" cy="728" opacity="0.95"></circle><circle r="4.5" cx="33" cy="493" opacity="0.45"></circle><circle r="4.5" cx="77" cy="202" opacity="0.71"></circle><circle r="4.5" cx="317" cy="29" opacity="0.41"></circle><circle r="4.5" cx="609" cy="81" opacity="0.22"></circle><circle r="4.5" cx="775" cy="327" opacity="0.14"></circle><circle r="4.5" cx="714" cy="619" opacity="0.94"></circle><circle r="4.5" cx="462" cy="778" opacity="0.47"></circle><circle r="4.5" cx="171" cy="709" opacity="0.73"></circle><circle r="4.5" cx="18" cy="451" opacity="0.64"></circle><circle r="4.5" cx="97" cy="161" opacity="0.44"></circle><circle r="4.5" cx="360" cy="15" opacity="0.79"></circle><circle r="4.5" cx="649" cy="103" opacity="0.77"></circle><circle r="4.5" cx="787" cy="371" opacity="0.65"></circle><circle r="4.5" cx="691" cy="658" opacity="0.49"></circle><circle r="4.5" cx="418" cy="789" opacity="0.88"></circle><circle r="4.5" cx="132" cy="684" opacity="0.58"></circle><circle r="4.5" cx="9" cy="406" opacity="0.12"></circle><circle r="5" cx="122" cy="123" opacity="0.88"></circle><circle r="5" cx="405" cy="7" opacity="0.33"></circle><circle r="5" cx="686" cy="129" opacity="0.17"></circle><circle r="5" cx="794" cy="417" opacity="0.62"></circle><circle r="5" cx="663" cy="695" opacity="0.83"></circle><circle r="5" cx="372" cy="795" opacity="0.95"></circle><circle r="5" cx="96" cy="655" opacity="0.96"></circle><circle r="5" cx="4" cy="360" opacity="0.43"></circle><circle r="5" cx="153" cy="88" opacity="0.96"></circle><circle r="5" cx="452" cy="4" opacity="0.57"></circle><circle r="5" cx="721" cy="161" opacity="0.62"></circle><circle r="5" cx="796" cy="464" opacity="0.87"></circle><circle r="5" cx="631" cy="729" opacity="0.67"></circle><circle r="5" cx="325" cy="795" opacity="0.87"></circle><circle r="5" cx="63" cy="622" opacity="0.78"></circle><circle r="5" cx="5" cy="313" opacity="0.49"></circle><circle r="5" cx="187" cy="55" opacity="0.46"></circle><circle r="5" cx="499" cy="7" opacity="0.28"></circle><circle r="5" cx="752" cy="197" opacity="0.45"></circle><circle r="5" cx="792" cy="511" opacity="0.88"></circle><circle r="5" cx="594" cy="759" opacity="0.47"></circle><circle r="5" cx="277" cy="790" opacity="0.79"></circle><circle r="5" cx="34" cy="584" opacity="0.48"></circle><circle r="5" cx="12" cy="265" opacity="0.12"></circle><circle r="5" cx="226" cy="27" opacity="0.10"></circle><circle r="5" cx="547" cy="15" opacity="0.14"></circle><circle r="5" cx="779" cy="236" opacity="0.49"></circle><circle r="5" cx="782" cy="558" opacity="0.60"></circle></g></svg>