<svg xmlns="http://www.w3.org/2000/svg" version="1.1" xmlns:xlink="http://www.w3.org/1999/xlink" xmlns:svgjs="http://svgjs.dev/svgjs" viewBox="0 0 1422 800"><g fill="none" stroke-width="3.5" stroke="hsl(105, 74%, 18%)" stroke-linecap="round" stroke-dasharray="6.5 1"><line x1="913" y1="400" x2="509" y2="400" transform="rotate(0, 711, 400)" opacity="0.60"></line><line x1="865" y1="400" x2="557" y2="400" transform="rotate(4, 711, 400)" opacity="0.79"></line><line x1="1116" y1="400" x2="306" y2="400" transform="rotate(8, 711, 400)" opacity="0.41"></line><line x1="425.5" y1="400" x2="996.5" y2="400" transform="rotate(12, 711, 400)" opacity="0.83"></line><line x1="201" y1="400" x2="1221" y2="400" transform="rotate(16, 711, 400)" opacity="0.31"></line><line x1="561" y1="400" x2="861" y2="400" transform="rotate(20, 711, 400)" opacity="0.91"></line><line x1="1157.5" y1="400" x2="264.5" y2="400" transform="rotate(24, 711, 400)" opacity="0.57"></line><line x1="-36" y1="400" x2="1458" y2="400" transform="rotate(28, 711, 400)" opacity="0.87"></line><line x1="338" y1="400" x2="1084" y2="400" transform="rotate(32, 711, 400)" opacity="0.40"></line><line x1="537.5" y1="400" x2="884.5" y2="400" transform="rotate(36, 711, 400)" opacity="0.35"></line><line x1="643.5" y1="400" x2="778.5" y2="400" transform="rotate(40, 711, 400)" opacity="0.93"></line><line x1="1037.5" y1="400" x2="384.5" y2="400" transform="rotate(44, 711, 400)" opacity="0.88"></line><line x1="120.5" y1="400" x2="1301.5" y2="400" transform="rotate(48, 711, 400)" opacity="0.68"></line><line x1="-77.5" y1="400" x2="1499.5" y2="400" transform="rotate(52, 711, 400)" opacity="0.75"></line><line x1="243.5" y1="400" x2="1178.5" y2="400" transform="rotate(56, 711, 400)" opacity="0.96"></line><line x1="143.5" y1="400" x2="1278.5" y2="400" transform="rotate(60, 711, 400)" opacity="0.29"></line><line x1="-130.5" y1="400" x2="1552.5" y2="400" transform="rotate(64, 711, 400)" opacity="0.28"></line><line x1="-206.5" y1="400" x2="1628.5" y2="400" transform="rotate(68, 711, 400)" opacity="0.24"></line><line x1="767.5" y1="400" x2="654.5" y2="400" transform="rotate(72, 711, 400)" opacity="0.73"></line><line x1="693" y1="400" x2="729" y2="400" transform="rotate(76, 711, 400)" opacity="0.80"></line><line x1="533.5" y1="400" x2="888.5" y2="400" transform="rotate(80, 711, 400)" opacity="0.74"></line><line x1="242" y1="400" x2="1180" y2="400" transform="rotate(84, 711, 400)" opacity="0.55"></line><line x1="437" y1="400" x2="985" y2="400" transform="rotate(88, 711, 400)" opacity="0.19"></line><line x1="729" y1="400" x2="693" y2="400" transform="rotate(92, 711, 400)" opacity="0.31"></line><line x1="141.5" y1="400" x2="1280.5" y2="400" transform="rotate(96, 711, 400)" opacity="0.36"></line><line x1="187" y1="400" x2="1235" y2="400" transform="rotate(100, 711, 400)" opacity="0.19"></line><line x1="-8" y1="400" x2="1430" y2="400" transform="rotate(104, 711, 400)" opacity="0.37"></line><line x1="1122.5" y1="400" x2="299.5" y2="400" transform="rotate(108, 711, 400)" opacity="0.35"></line><line x1="506.5" y1="400" x2="915.5" y2="400" transform="rotate(112, 711, 400)" opacity="0.95"></line><line x1="-18" y1="400" x2="1440" y2="400" transform="rotate(116, 711, 400)" opacity="0.39"></line><line x1="888" y1="400" x2="534" y2="400" transform="rotate(120, 711, 400)" opacity="0.92"></line><line x1="990" y1="400" x2="432" y2="400" transform="rotate(124, 711, 400)" opacity="0.68"></line><line x1="-71.5" y1="400" x2="1493.5" y2="400" transform="rotate(128, 711, 400)" opacity="1.00"></line><line x1="-126" y1="400" x2="1548" y2="400" transform="rotate(132, 711, 400)" opacity="0.43"></line><line x1="1241" y1="400" x2="181" y2="400" transform="rotate(136, 711, 400)" opacity="0.25"></line><line x1="959.5" y1="400" x2="462.5" y2="400" transform="rotate(140, 711, 400)" opacity="0.56"></line><line x1="710" y1="400" x2="712" y2="400" transform="rotate(144, 711, 400)" opacity="0.23"></line><line x1="1029" y1="400" x2="393" y2="400" transform="rotate(148, 711, 400)" opacity="0.23"></line><line x1="593" y1="400" x2="829" y2="400" transform="rotate(152, 711, 400)" opacity="0.42"></line><line x1="1127.5" y1="400" x2="294.5" y2="400" transform="rotate(156, 711, 400)" opacity="0.48"></line><line x1="-224" y1="400" x2="1646" y2="400" transform="rotate(160, 711, 400)" opacity="0.22"></line><line x1="1129.5" y1="400" x2="292.5" y2="400" transform="rotate(164, 711, 400)" opacity="0.22"></line><line x1="192.5" y1="400" x2="1229.5" y2="400" transform="rotate(168, 711, 400)" opacity="0.58"></line><line x1="-79.5" y1="400" x2="1501.5" y2="400" transform="rotate(172, 711, 400)" opacity="0.43"></line><line x1="261.5" y1="400" x2="1160.5" y2="400" transform="rotate(176, 711, 400)" opacity="0.30"></line><line x1="868" y1="400" x2="554" y2="400" transform="rotate(180, 711, 400)" opacity="0.28"></line><line x1="464.5" y1="400" x2="957.5" y2="400" transform="rotate(184, 711, 400)" opacity="0.62"></line><line x1="1240.5" y1="400" x2="181.5" y2="400" transform="rotate(188, 711, 400)" opacity="0.76"></line><line x1="46.5" y1="400" x2="1375.5" y2="400" transform="rotate(192, 711, 400)" opacity="0.95"></line><line x1="719.5" y1="400" x2="702.5" y2="400" transform="rotate(196, 711, 400)" opacity="0.42"></line><line x1="702.5" y1="400" x2="719.5" y2="400" transform="rotate(200, 711, 400)" opacity="0.60"></line><line x1="1002.5" y1="400" x2="419.5" y2="400" transform="rotate(204, 711, 400)" opacity="0.73"></line><line x1="198.5" y1="400" x2="1223.5" y2="400" transform="rotate(208, 711, 400)" opacity="0.38"></line><line x1="719.5" y1="400" x2="702.5" y2="400" transform="rotate(212, 711, 400)" opacity="0.45"></line><line x1="1023.5" y1="400" x2="398.5" y2="400" transform="rotate(216, 711, 400)" opacity="0.84"></line><line x1="428.5" y1="400" x2="993.5" y2="400" transform="rotate(220, 711, 400)" opacity="0.98"></line><line x1="200" y1="400" x2="1222" y2="400" transform="rotate(224, 711, 400)" opacity="0.46"></line><line x1="547" y1="400" x2="875" y2="400" transform="rotate(228, 711, 400)" opacity="0.73"></line><line x1="-109" y1="400" x2="1531" y2="400" transform="rotate(232, 711, 400)" opacity="0.17"></line><line x1="-237.5" y1="400" x2="1659.5" y2="400" transform="rotate(236, 711, 400)" opacity="0.77"></line><line x1="58" y1="400" x2="1364" y2="400" transform="rotate(240, 711, 400)" opacity="0.52"></line><line x1="690" y1="400" x2="732" y2="400" transform="rotate(244, 711, 400)" opacity="0.18"></line><line x1="-194.5" y1="400" x2="1616.5" y2="400" transform="rotate(248, 711, 400)" opacity="0.36"></line><line x1="479.5" y1="400" x2="942.5" y2="400" transform="rotate(252, 711, 400)" opacity="0.66"></line><line x1="652.5" y1="400" x2="769.5" y2="400" transform="rotate(256, 711, 400)" opacity="0.69"></line><line x1="435" y1="400" x2="987" y2="400" transform="rotate(260, 711, 400)" opacity="0.73"></line><line x1="332" y1="400" x2="1090" y2="400" transform="rotate(264, 711, 400)" opacity="0.93"></line><line x1="198" y1="400" x2="1224" y2="400" transform="rotate(268, 711, 400)" opacity="0.12"></line><line x1="173.5" y1="400" x2="1248.5" y2="400" transform="rotate(272, 711, 400)" opacity="0.78"></line><line x1="215.5" y1="400" x2="1206.5" y2="400" transform="rotate(276, 711, 400)" opacity="0.83"></line><line x1="703" y1="400" x2="719" y2="400" transform="rotate(280, 711, 400)" opacity="0.39"></line><line x1="133.5" y1="400" x2="1288.5" y2="400" transform="rotate(284, 711, 400)" opacity="0.55"></line><line x1="387.5" y1="400" x2="1034.5" y2="400" transform="rotate(288, 711, 400)" opacity="0.42"></line><line x1="-69" y1="400" x2="1491" y2="400" transform="rotate(292, 711, 400)" opacity="0.91"></line><line x1="428" y1="400" x2="994" y2="400" transform="rotate(296, 711, 400)" opacity="0.43"></line><line x1="892" y1="400" x2="530" y2="400" transform="rotate(300, 711, 400)" opacity="0.09"></line><line x1="1074.5" y1="400" x2="347.5" y2="400" transform="rotate(304, 711, 400)" opacity="0.14"></line><line x1="-101" y1="400" x2="1523" y2="400" transform="rotate(308, 711, 400)" opacity="0.09"></line><line x1="1155.5" y1="400" x2="266.5" y2="400" transform="rotate(312, 711, 400)" opacity="0.73"></line><line x1="40" y1="400" x2="1382" y2="400" transform="rotate(316, 711, 400)" opacity="0.30"></line><line x1="-170.5" y1="400" x2="1592.5" y2="400" transform="rotate(320, 711, 400)" opacity="0.77"></line><line x1="853.5" y1="400" x2="568.5" y2="400" transform="rotate(324, 711, 400)" opacity="0.49"></line><line x1="-28.5" y1="400" x2="1450.5" y2="400" transform="rotate(328, 711, 400)" opacity="0.56"></line><line x1="944" y1="400" x2="478" y2="400" transform="rotate(332, 711, 400)" opacity="0.97"></line><line x1="312.5" y1="400" x2="1109.5" y2="400" transform="rotate(336, 711, 400)" opacity="0.29"></line><line x1="695" y1="400" x2="727" y2="400" transform="rotate(340, 711, 400)" opacity="0.91"></line><line x1="-134.5" y1="400" x2="1556.5" y2="400" transform="rotate(344, 711, 400)" opacity="0.68"></line><line x1="1153.5" y1="400" x2="268.5" y2="400" transform="rotate(348, 711, 400)" opacity="0.36"></line></g></svg>