<svg xmlns="http://www.w3.org/2000/svg" version="1.1" xmlns:xlink="http://www.w3.org/1999/xlink" xmlns:svgjs="http://svgjs.dev/svgjs" viewBox="0 0 1422 800"><g fill="none" stroke-width="3.5" stroke="hsl(105, 75%, 12%)" stroke-linecap="round" stroke-dasharray="6.5 1"><line x1="432.5" y1="400" x2="989.5" y2="400" transform="rotate(0, 711, 400)" opacity="0.42"></line><line x1="105" y1="400" x2="1317" y2="400" transform="rotate(4, 711, 400)" opacity="0.37"></line><line x1="820" y1="400" x2="602" y2="400" transform="rotate(8, 711, 400)" opacity="0.72"></line><line x1="547" y1="400" x2="875" y2="400" transform="rotate(12, 711, 400)" opacity="0.81"></line><line x1="678" y1="400" x2="744" y2="400" transform="rotate(16, 711, 400)" opacity="0.26"></line><line x1="-46" y1="400" x2="1468" y2="400" transform="rotate(20, 711, 400)" opacity="0.28"></line><line x1="-107" y1="400" x2="1529" y2="400" transform="rotate(24, 711, 400)" opacity="0.92"></line><line x1="904.5" y1="400" x2="517.5" y2="400" transform="rotate(28, 711, 400)" opacity="0.68"></line><line x1="294.5" y1="400" x2="1127.5" y2="400" transform="rotate(32, 711, 400)" opacity="0.49"></line><line x1="670.5" y1="400" x2="751.5" y2="400" transform="rotate(36, 711, 400)" opacity="0.09"></line><line x1="66" y1="400" x2="1356" y2="400" transform="rotate(40, 711, 400)" opacity="0.38"></line><line x1="-163" y1="400" x2="1585" y2="400" transform="rotate(44, 711, 400)" opacity="0.48"></line><line x1="585.5" y1="400" x2="836.5" y2="400" transform="rotate(48, 711, 400)" opacity="0.39"></line><line x1="974" y1="400" x2="448" y2="400" transform="rotate(52, 711, 400)" opacity="0.24"></line><line x1="738.5" y1="400" x2="683.5" y2="400" transform="rotate(56, 711, 400)" opacity="0.23"></line><line x1="1046.5" y1="400" x2="375.5" y2="400" transform="rotate(60, 711, 400)" opacity="0.42"></line><line x1="227.5" y1="400" x2="1194.5" y2="400" transform="rotate(64, 711, 400)" opacity="0.59"></line><line x1="952" y1="400" x2="470" y2="400" transform="rotate(68, 711, 400)" opacity="0.82"></line><line x1="-110" y1="400" x2="1532" y2="400" transform="rotate(72, 711, 400)" opacity="0.09"></line><line x1="490.5" y1="400" x2="931.5" y2="400" transform="rotate(76, 711, 400)" opacity="0.29"></line><line x1="121.5" y1="400" x2="1300.5" y2="400" transform="rotate(80, 711, 400)" opacity="0.99"></line><line x1="605.5" y1="400" x2="816.5" y2="400" transform="rotate(84, 711, 400)" opacity="0.65"></line><line x1="-118.5" y1="400" x2="1540.5" y2="400" transform="rotate(88, 711, 400)" opacity="0.75"></line><line x1="606.5" y1="400" x2="815.5" y2="400" transform="rotate(92, 711, 400)" opacity="0.07"></line><line x1="1083.5" y1="400" x2="338.5" y2="400" transform="rotate(96, 711, 400)" opacity="0.40"></line><line x1="738" y1="400" x2="684" y2="400" transform="rotate(100, 711, 400)" opacity="0.73"></line><line x1="1019.5" y1="400" x2="402.5" y2="400" transform="rotate(104, 711, 400)" opacity="0.12"></line><line x1="28.5" y1="400" x2="1393.5" y2="400" transform="rotate(108, 711, 400)" opacity="0.11"></line><line x1="105" y1="400" x2="1317" y2="400" transform="rotate(112, 711, 400)" opacity="0.63"></line><line x1="468.5" y1="400" x2="953.5" y2="400" transform="rotate(116, 711, 400)" opacity="0.68"></line><line x1="587" y1="400" x2="835" y2="400" transform="rotate(120, 711, 400)" opacity="0.18"></line><line x1="526.5" y1="400" x2="895.5" y2="400" transform="rotate(124, 711, 400)" opacity="0.61"></line><line x1="312" y1="400" x2="1110" y2="400" transform="rotate(128, 711, 400)" opacity="0.72"></line><line x1="722.5" y1="400" x2="699.5" y2="400" transform="rotate(132, 711, 400)" opacity="0.84"></line><line x1="341.5" y1="400" x2="1080.5" y2="400" transform="rotate(136, 711, 400)" opacity="0.99"></line><line x1="514" y1="400" x2="908" y2="400" transform="rotate(140, 711, 400)" opacity="0.95"></line><line x1="-92.5" y1="400" x2="1514.5" y2="400" transform="rotate(144, 711, 400)" opacity="0.79"></line><line x1="102.5" y1="400" x2="1319.5" y2="400" transform="rotate(148, 711, 400)" opacity="0.79"></line><line x1="198.5" y1="400" x2="1223.5" y2="400" transform="rotate(152, 711, 400)" opacity="0.70"></line><line x1="86.5" y1="400" x2="1335.5" y2="400" transform="rotate(156, 711, 400)" opacity="0.91"></line><line x1="380" y1="400" x2="1042" y2="400" transform="rotate(160, 711, 400)" opacity="0.59"></line><line x1="99" y1="400" x2="1323" y2="400" transform="rotate(164, 711, 400)" opacity="0.76"></line><line x1="-90" y1="400" x2="1512" y2="400" transform="rotate(168, 711, 400)" opacity="0.48"></line><line x1="-69" y1="400" x2="1491" y2="400" transform="rotate(172, 711, 400)" opacity="0.68"></line><line x1="1143.5" y1="400" x2="278.5" y2="400" transform="rotate(176, 711, 400)" opacity="0.43"></line><line x1="1216" y1="400" x2="206" y2="400" transform="rotate(180, 711, 400)" opacity="0.43"></line><line x1="912.5" y1="400" x2="509.5" y2="400" transform="rotate(184, 711, 400)" opacity="0.93"></line><line x1="1125" y1="400" x2="297" y2="400" transform="rotate(188, 711, 400)" opacity="0.22"></line><line x1="-151.5" y1="400" x2="1573.5" y2="400" transform="rotate(192, 711, 400)" opacity="0.15"></line><line x1="522.5" y1="400" x2="899.5" y2="400" transform="rotate(196, 711, 400)" opacity="0.32"></line><line x1="-37" y1="400" x2="1459" y2="400" transform="rotate(200, 711, 400)" opacity="0.55"></line><line x1="932" y1="400" x2="490" y2="400" transform="rotate(204, 711, 400)" opacity="0.20"></line><line x1="1224" y1="400" x2="198" y2="400" transform="rotate(208, 711, 400)" opacity="0.78"></line><line x1="354" y1="400" x2="1068" y2="400" transform="rotate(212, 711, 400)" opacity="0.30"></line><line x1="372.5" y1="400" x2="1049.5" y2="400" transform="rotate(216, 711, 400)" opacity="0.35"></line><line x1="426.5" y1="400" x2="995.5" y2="400" transform="rotate(220, 711, 400)" opacity="0.52"></line><line x1="946.5" y1="400" x2="475.5" y2="400" transform="rotate(224, 711, 400)" opacity="0.26"></line><line x1="760" y1="400" x2="662" y2="400" transform="rotate(228, 711, 400)" opacity="0.82"></line><line x1="415.5" y1="400" x2="1006.5" y2="400" transform="rotate(232, 711, 400)" opacity="0.76"></line><line x1="725" y1="400" x2="697" y2="400" transform="rotate(236, 711, 400)" opacity="0.25"></line><line x1="142.5" y1="400" x2="1279.5" y2="400" transform="rotate(240, 711, 400)" opacity="0.60"></line><line x1="775" y1="400" x2="647" y2="400" transform="rotate(244, 711, 400)" opacity="0.41"></line><line x1="222" y1="400" x2="1200" y2="400" transform="rotate(248, 711, 400)" opacity="0.46"></line><line x1="681.5" y1="400" x2="740.5" y2="400" transform="rotate(252, 711, 400)" opacity="0.53"></line><line x1="67.5" y1="400" x2="1354.5" y2="400" transform="rotate(256, 711, 400)" opacity="0.97"></line><line x1="193" y1="400" x2="1229" y2="400" transform="rotate(260, 711, 400)" opacity="0.90"></line><line x1="1069" y1="400" x2="353" y2="400" transform="rotate(264, 711, 400)" opacity="0.12"></line><line x1="-50.5" y1="400" x2="1472.5" y2="400" transform="rotate(268, 711, 400)" opacity="0.29"></line><line x1="-73" y1="400" x2="1495" y2="400" transform="rotate(272, 711, 400)" opacity="0.23"></line><line x1="1140" y1="400" x2="282" y2="400" transform="rotate(276, 711, 400)" opacity="0.83"></line><line x1="786" y1="400" x2="636" y2="400" transform="rotate(280, 711, 400)" opacity="0.28"></line><line x1="940" y1="400" x2="482" y2="400" transform="rotate(284, 711, 400)" opacity="0.85"></line><line x1="117.5" y1="400" x2="1304.5" y2="400" transform="rotate(288, 711, 400)" opacity="0.78"></line><line x1="853.5" y1="400" x2="568.5" y2="400" transform="rotate(292, 711, 400)" opacity="0.13"></line><line x1="134.5" y1="400" x2="1287.5" y2="400" transform="rotate(296, 711, 400)" opacity="0.52"></line><line x1="67" y1="400" x2="1355" y2="400" transform="rotate(300, 711, 400)" opacity="0.23"></line><line x1="691.5" y1="400" x2="730.5" y2="400" transform="rotate(304, 711, 400)" opacity="0.98"></line><line x1="317.5" y1="400" x2="1104.5" y2="400" transform="rotate(308, 711, 400)" opacity="0.65"></line><line x1="175" y1="400" x2="1247" y2="400" transform="rotate(312, 711, 400)" opacity="0.78"></line><line x1="-149.5" y1="400" x2="1571.5" y2="400" transform="rotate(316, 711, 400)" opacity="0.48"></line><line x1="351" y1="400" x2="1071" y2="400" transform="rotate(320, 711, 400)" opacity="0.94"></line><line x1="103" y1="400" x2="1319" y2="400" transform="rotate(324, 711, 400)" opacity="0.14"></line><line x1="856.5" y1="400" x2="565.5" y2="400" transform="rotate(328, 711, 400)" opacity="0.10"></line><line x1="572" y1="400" x2="850" y2="400" transform="rotate(332, 711, 400)" opacity="0.99"></line><line x1="70.5" y1="400" x2="1351.5" y2="400" transform="rotate(336, 711, 400)" opacity="0.55"></line><line x1="28" y1="400" x2="1394" y2="400" transform="rotate(340, 711, 400)" opacity="0.17"></line><line x1="1117.5" y1="400" x2="304.5" y2="400" transform="rotate(344, 711, 400)" opacity="0.14"></line><line x1="348.5" y1="400" x2="1073.5" y2="400" transform="rotate(348, 711, 400)" opacity="0.96"></line></g></svg>